<?xml version="1.0" encoding="UTF-8"?><svg id="b" xmlns="http://www.w3.org/2000/svg" width="91.73mm" height="44.54mm" viewBox="0 0 260.02 126.25"><g id="c"><path d="M1.63,125.76H.38v-24.52h1.26v24.52Z" fill="#1a1329" stroke="#1b1429" stroke-miterlimit="10" stroke-width=".75"/><path d="M22.57,123.31v-22.07h1.25v24.52h-1.25l-13.97-20.64-.97-1.48h-.06v22.13h-1.31v-24.52h1.37c.42.51,4.54,6.63,12.38,18.36l2.51,3.71h.06Z" fill="#1a1329" stroke="#1b1429" stroke-miterlimit="10" stroke-width=".75"/><path d="M35.07,101.3h12.6v1.26h-11.58c-1.78,0-2.97.19-3.59.57-1.75.96-2.62,2.52-2.62,4.68s.95,3.61,2.85,4.67c.74.27,1.37.4,1.88.4h7.81c.77,0,1.74.4,2.91,1.2,1.52,1.38,2.28,3.13,2.28,5.25,0,2.55-1.08,4.47-3.25,5.76-.96.46-1.8.68-2.51.68h-13.4v-1.2h11.46c1.83,0,3-.15,3.54-.46,1.9-.92,2.85-2.58,2.85-4.96,0-.75-.28-1.68-.85-2.79-.57-.94-1.5-1.63-2.79-2.05l-1.08-.17h-7.64c-1.29,0-2.57-.65-3.82-1.94-1.03-1.35-1.54-2.74-1.54-4.16v-.28c0-2.18.87-3.96,2.62-5.36,1.2-.72,2.49-1.08,3.88-1.08Z" fill="#1a1329" stroke="#1b1429" stroke-miterlimit="10" stroke-width=".75"/><path d="M53.56,125.76h-1.26v-24.52h1.26v24.52Z" fill="#1a1329" stroke="#1b1429" stroke-miterlimit="10" stroke-width=".75"/><path d="M70.79,101.24h6.67v1.43h-6.67c-2.75,0-5.16.87-7.24,2.62-.82.73-1.5,1.49-2.05,2.28-1.08,1.68-1.69,3.32-1.83,4.9l-.06.4v.4l-.06.23c0,.92.25,2.2.74,3.82.71,1.63,1.68,3.03,2.91,4.22l1.08.85c1.16.83,2.53,1.44,4.1,1.83l2.05.28c2.03,0,3.95-.61,5.76-1.82v-6.16h-4.56v-1.31h5.82v10.55h-1.26v-1.37h-.06c-1.18.65-2.57,1.08-4.16,1.31l-1.65.06h-.57c-1.69,0-3.65-.63-5.87-1.88-1.33-.94-2.22-1.74-2.68-2.4-2.02-2.3-3.02-5.09-3.02-8.38,0-1.08.36-2.62,1.08-4.62.06,0,.25-.37.57-1.08,1.53-2.6,3.89-4.49,7.07-5.65,1.35-.34,2.64-.51,3.88-.51Z" fill="#1a1329" stroke="#1b1429" stroke-miterlimit="10" stroke-width=".75"/><path d="M83.41,112.93h16.71v-11.69h1.26v24.52h-1.26v-11.52h-16.71v11.52h-1.31v-24.52h1.31v11.69Z" fill="#1a1329" stroke="#1b1429" stroke-miterlimit="10" stroke-width=".75"/><path d="M125.28,102.55h-8.95v23.21h-1.31v-23.21h-9.01v-1.31h19.28v1.31Z" fill="#1a1329" stroke="#1b1429" stroke-miterlimit="10" stroke-width=".75"/><path d="M151.03,123.14h.11l8.1-21.9h1.43v24.52h-1.26v-20.99h-.06l-7.87,20.99h-.74c-.07,0-.43-.9-1.08-2.68l-6.9-18.31h-.06v20.99h-1.31v-24.52h1.37c.1.05.6,1.32,1.48,3.82l6.79,18.08Z" fill="#1a1329" stroke="#1b1429" stroke-miterlimit="10" stroke-width=".75"/><path d="M175.64,101.35c1.7.13,3.3.65,4.79,1.54,2.78,1.84,4.16,4.47,4.16,7.87v15h-1.31v-11.46h-16.59v11.46h-1.38v-14.43c.01-2.99.95-5.43,2.81-7.3,1.15-1.2,2.88-2.03,5.19-2.51.15-.08.93-.13,2.34-.17ZM166.63,111.39v1.65h16.65v-2.4c0-2.15-.85-4.13-2.57-5.93-1.8-1.29-3.64-1.96-5.53-2-2.73,0-4.89.93-6.5,2.8-1.37,1.59-2.05,3.55-2.05,5.87Z" fill="#1a1329" stroke="#1b1429" stroke-miterlimit="10" stroke-width=".75"/><path d="M205.47,102.55h-8.95v23.21h-1.31v-23.21h-9.01v-1.31h19.28v1.31Z" fill="#1a1329" stroke="#1b1429" stroke-miterlimit="10" stroke-width=".75"/><path d="M229.32,106.94v1.65c-.22,1.34-.62,2.41-1.2,3.19-1.29,1.63-3,2.45-5.13,2.45l6.27,10.95-1.14.57c-4.3-7.53-6.52-11.37-6.67-11.52h-10.04v11.52h-1.31v-24.52h13.23c1.26,0,2.49.44,3.71,1.31.74.63,1.29,1.33,1.65,2.11.42.97.63,1.73.63,2.28ZM211.41,102.49v10.44h11.01c2.12,0,3.58-.55,4.39-1.65.87-1.02,1.31-2.19,1.31-3.54,0-1.66-.61-3.05-1.83-4.16-1.07-.72-2.08-1.08-3.02-1.08h-11.86Z" fill="#1a1329" stroke="#1b1429" stroke-miterlimit="10" stroke-width=".75"/><path d="M235.21,125.76h-1.26v-24.52h1.26v24.52Z" fill="#1a1329" stroke="#1b1429" stroke-miterlimit="10" stroke-width=".75"/><path d="M239.84,101.24h1.54c.28.28,1.92,2.51,4.9,6.67l3.25,4.45h.06l6.62-8.95c.99-1.38,1.54-2.1,1.65-2.17h1.37v.06l-8.9,12.2,8.95,12.26h-1.54l-7.53-10.27-.63-.8c-.76.95-3.31,4.41-7.64,10.38l-.57.68h-1.42l8.9-12.2-9.01-12.32Z" fill="#1a1329" stroke="#1b1429" stroke-miterlimit="10" stroke-width=".75"/><path d="M89.66,19.08h-21.82V0h21.82v19.08ZM89.66,79.53h-21.82V30.64h21.82v48.89Z" fill="#34bfe5"/><path d="M180.72,6.44c-5.96-5.96-13.35-6.44-23.85-6.44h-56.16v79.53h21.82V19.08h11.33v60.45h20.15V19.08h2.15c7.51,0,9.3,2.5,9.3,9.54v50.91h21.82V27.78c0-9.42-1.31-16.1-6.56-21.34Z" fill="#1a1329"/></g></svg>