<?xml version="1.0" encoding="UTF-8"?><svg id="b" xmlns="http://www.w3.org/2000/svg" width="91.18mm" height="44.35mm" viewBox="0 0 258.46 125.72"><g id="c"><path d="M89.12,19.04h-21.78V0h21.78v19.04ZM89.12,79.39h-21.78V30.59h21.78v48.8Z" fill="#34bfe5"/><path d="M180.02,6.43c-5.95-5.95-13.33-6.43-23.81-6.43h-56.06v79.39h21.78V19.04h11.31v60.35h20.12V19.04h2.14c7.5,0,9.29,2.5,9.29,9.52v50.83h21.78V27.73c0-9.4-1.31-16.07-6.55-21.31Z" fill="#fff"/><path d="M1.25,125.72H0v-24.48h1.25v24.48Z" fill="#fff"/><path d="M22.16,123.27v-22.03h1.25v24.48h-1.25l-13.95-20.61-.97-1.48h-.06v22.09h-1.31v-24.48h1.37c.42.5,4.54,6.61,12.35,18.33l2.5,3.7h.06Z" fill="#fff"/><path d="M34.64,101.3h12.58v1.25h-11.56c-1.77,0-2.97.19-3.59.57-1.75.96-2.62,2.51-2.62,4.67s.95,3.61,2.85,4.67c.74.27,1.37.4,1.88.4h7.8c.77,0,1.74.4,2.9,1.2,1.52,1.38,2.28,3.12,2.28,5.24,0,2.54-1.08,4.46-3.25,5.75-.96.46-1.79.68-2.5.68h-13.38v-1.2h11.44c1.82,0,3-.15,3.53-.46,1.9-.92,2.85-2.57,2.85-4.95,0-.75-.28-1.68-.85-2.79-.57-.94-1.5-1.62-2.79-2.05l-1.08-.17h-7.63c-1.29,0-2.56-.64-3.81-1.94-1.02-1.35-1.54-2.73-1.54-4.16v-.28c0-2.17.87-3.96,2.62-5.35,1.2-.72,2.49-1.08,3.87-1.08Z" fill="#fff"/><path d="M53.09,125.72h-1.25v-24.48h1.25v24.48Z" fill="#fff"/><path d="M70.29,101.24h6.66v1.42h-6.66c-2.74,0-5.15.87-7.23,2.62-.82.73-1.5,1.49-2.05,2.28-1.08,1.68-1.69,3.31-1.82,4.9l-.06.4v.4l-.06.23c0,.92.25,2.19.74,3.81.71,1.62,1.68,3.03,2.9,4.21l1.08.85c1.16.83,2.52,1.43,4.1,1.82l2.05.28c2.03,0,3.95-.61,5.75-1.82v-6.15h-4.55v-1.31h5.81v10.53h-1.25v-1.37h-.06c-1.18.65-2.56,1.08-4.16,1.31l-1.65.06h-.57c-1.69,0-3.64-.63-5.86-1.88-1.33-.94-2.22-1.74-2.68-2.39-2.01-2.3-3.02-5.09-3.02-8.37,0-1.08.36-2.62,1.08-4.61.06,0,.25-.37.57-1.08,1.53-2.6,3.88-4.48,7.06-5.64,1.35-.34,2.64-.51,3.87-.51Z" fill="#fff"/><path d="M82.89,112.91h16.68v-11.67h1.25v24.48h-1.25v-11.5h-16.68v11.5h-1.31v-24.48h1.31v11.67Z" fill="#fff"/><path d="M124.69,102.55h-8.94v23.17h-1.31v-23.17h-8.99v-1.31h19.24v1.31Z" fill="#fff"/><path d="M150.4,123.1h.11l8.08-21.86h1.42v24.48h-1.25v-20.95h-.06l-7.86,20.95h-.74c-.07,0-.43-.9-1.08-2.68l-6.89-18.27h-.06v20.95h-1.31v-24.48h1.37c.1.05.6,1.32,1.48,3.81l6.77,18.05Z" fill="#fff"/><path d="M174.96,101.36c1.7.13,3.29.64,4.78,1.54,2.77,1.84,4.16,4.46,4.16,7.86v14.97h-1.31v-11.44h-16.57v11.44h-1.38v-14.4c.01-2.99.94-5.42,2.8-7.29,1.15-1.2,2.88-2.03,5.18-2.51.15-.08.93-.13,2.33-.17ZM165.96,111.38v1.65h16.62v-2.39c0-2.14-.85-4.12-2.56-5.92-1.79-1.29-3.63-1.95-5.52-1.99-2.72,0-4.89.93-6.49,2.79-1.37,1.58-2.05,3.54-2.05,5.86Z" fill="#fff"/><path d="M204.74,102.55h-8.94v23.17h-1.31v-23.17h-8.99v-1.31h19.24v1.31Z" fill="#fff"/><path d="M228.55,106.94v1.65c-.22,1.34-.62,2.4-1.2,3.19-1.29,1.63-3,2.45-5.12,2.45l6.26,10.93-1.14.57c-4.29-7.51-6.51-11.35-6.66-11.5h-10.02v11.5h-1.31v-24.48h13.21c1.25,0,2.49.44,3.7,1.31.74.62,1.29,1.33,1.65,2.1.42.97.62,1.73.62,2.28ZM210.67,102.5v10.42h10.99c2.12,0,3.58-.55,4.38-1.65.87-1.01,1.31-2.19,1.31-3.53,0-1.66-.61-3.05-1.82-4.16-1.07-.72-2.08-1.08-3.02-1.08h-11.84Z" fill="#fff"/><path d="M234.42,125.72h-1.25v-24.48h1.25v24.48Z" fill="#fff"/><path d="M239.04,101.24h1.54c.28.28,1.92,2.51,4.9,6.66l3.25,4.44h.06l6.6-8.94c.99-1.38,1.54-2.1,1.65-2.16h1.37v.06l-8.88,12.18,8.94,12.24h-1.54l-7.51-10.25-.63-.8c-.76.95-3.3,4.4-7.63,10.36l-.57.68h-1.42l8.88-12.18-8.99-12.3Z" fill="#fff"/></g></svg>